<?xml version="1.0" encoding="UTF-8" standalone="no"?>
<!-- Generator: Adobe Illustrator 19.0.0, SVG Export Plug-In . SVG Version: 6.00 Build 0)  -->

<svg
   xmlns:dc="http://purl.org/dc/elements/1.1/"
   xmlns:cc="http://creativecommons.org/ns#"
   xmlns:rdf="http://www.w3.org/1999/02/22-rdf-syntax-ns#"
   xmlns:svg="http://www.w3.org/2000/svg"
   xmlns="http://www.w3.org/2000/svg"
   xmlns:sodipodi="http://sodipodi.sourceforge.net/DTD/sodipodi-0.dtd"
   xmlns:inkscape="http://www.inkscape.org/namespaces/inkscape"
   version="1.1"
   id="Layer_1"
   x="0px"
   y="0px"
   viewBox="0 0 300 300"
   style="enable-background:new 0 0 300 300;"
   xml:space="preserve"
   inkscape:version="0.48.4 r9939"
   width="100%"
   height="100%"
   sodipodi:docname="fast-forward.svg"><metadata
     id="metadata43"><rdf:RDF><cc:Work
         rdf:about=""><dc:format>image/svg+xml</dc:format><dc:type
           rdf:resource="http://purl.org/dc/dcmitype/StillImage" /></cc:Work></rdf:RDF></metadata><defs
     id="defs41" /><sodipodi:namedview
     pagecolor="#060000"
     bordercolor="#666666"
     borderopacity="1"
     objecttolerance="10"
     gridtolerance="10"
     guidetolerance="10"
     inkscape:pageopacity="1"
     inkscape:pageshadow="2"
     inkscape:window-width="1301"
     inkscape:window-height="744"
     id="namedview39"
     showgrid="false"
     inkscape:zoom="1.5733333"
     inkscape:cx="153.71813"
     inkscape:cy="127.65427"
     inkscape:window-x="65"
     inkscape:window-y="24"
     inkscape:window-maximized="1"
     inkscape:current-layer="Layer_1" /><g
     id="g9" /><g
     id="g11" /><g
     id="g13" /><g
     id="g15" /><g
     id="g17" /><g
     id="g19" /><g
     id="g21" /><g
     id="g23" /><g
     id="g25" /><g
     id="g27" /><g
     id="g29" /><g
     id="g31" /><g
     id="g33" /><g
     id="g35" /><g
     id="g37" /><rect
     style="color:#000000;fill:#ffffff;fill-opacity:1;fill-rule:nonzero;stroke:#ffffff;stroke-width:0.58361483;stroke-linecap:butt;stroke-linejoin:miter;stroke-miterlimit:4;stroke-opacity:1;stroke-dasharray:none;stroke-dashoffset:0;marker:none;visibility:visible;display:inline;overflow:visible;enable-background:accumulate"
     id="rect3001"
     width="173.60706"
     height="102.42061"
     x="65.421051"
     y="97.200706" /><g
     id="g3"
     style="fill:#e23229;fill-opacity:1"><g
       id="g5"
       style="fill:#e23229;fill-opacity:1"><path
         d="M150,0C67.157,0,0,67.157,0,150c0,82.841,67.157,150,150,150c82.838,0,150-67.159,150-150C300,67.157,232.838,0,150,0z     M235.188,157.228l-71.532,41.301c-1.289,0.744-2.731,1.123-4.171,1.123s-2.879-0.379-4.171-1.123    c-2.583-1.489-4.173-4.246-4.173-7.226v-33.899l-71.239,41.125c-1.292,0.744-2.734,1.123-4.173,1.123    c-1.439,0-2.879-0.379-4.171-1.123c-2.583-1.489-4.173-4.246-4.173-7.226v-82.605c0-2.977,1.59-5.74,4.173-7.228    c2.583-1.489,5.76-1.489,8.346,0l71.237,41.132v-33.904c0-2.977,1.587-5.74,4.171-7.228c2.583-1.489,5.766-1.489,8.349,0    l71.532,41.304c2.583,1.486,4.178,4.248,4.168,7.226C239.364,152.98,237.771,155.74,235.188,157.228z"
         id="path7"
         style="fill:#e23229;fill-opacity:1" /></g></g></svg>