<?xml version="1.0" encoding="UTF-8" standalone="no"?>
<!-- Generator: Adobe Illustrator 19.0.0, SVG Export Plug-In . SVG Version: 6.00 Build 0)  -->

<svg
   xmlns:dc="http://purl.org/dc/elements/1.1/"
   xmlns:cc="http://creativecommons.org/ns#"
   xmlns:rdf="http://www.w3.org/1999/02/22-rdf-syntax-ns#"
   xmlns:svg="http://www.w3.org/2000/svg"
   xmlns="http://www.w3.org/2000/svg"
   xmlns:sodipodi="http://sodipodi.sourceforge.net/DTD/sodipodi-0.dtd"
   xmlns:inkscape="http://www.inkscape.org/namespaces/inkscape"
   version="1.1"
   id="Layer_1"
   x="0px"
   y="0px"
   viewBox="0 0 300.003 300.003"
   style="enable-background:new 0 0 300.003 300.003;"
   xml:space="preserve"
   inkscape:version="0.48.4 r9939"
   width="100%"
   height="100%"
   sodipodi:docname="volume-1 (copy).svg"><metadata
     id="metadata3190"><rdf:RDF><cc:Work
         rdf:about=""><dc:format>image/svg+xml</dc:format><dc:type
           rdf:resource="http://purl.org/dc/dcmitype/StillImage" /></cc:Work></rdf:RDF></metadata><defs
     id="defs3188" /><sodipodi:namedview
     pagecolor="#ffffff"
     bordercolor="#666666"
     borderopacity="1"
     objecttolerance="10"
     gridtolerance="10"
     guidetolerance="10"
     inkscape:pageopacity="0"
     inkscape:pageshadow="2"
     inkscape:window-width="1301"
     inkscape:window-height="744"
     id="namedview3186"
     showgrid="false"
     inkscape:zoom="0.7866588"
     inkscape:cx="135.41315"
     inkscape:cy="163.92502"
     inkscape:window-x="65"
     inkscape:window-y="24"
     inkscape:window-maximized="1"
     inkscape:current-layer="Layer_1" /><g
     id="g3156" /><g
     id="g3158" /><g
     id="g3160" /><g
     id="g3162" /><g
     id="g3164" /><g
     id="g3166" /><g
     id="g3168" /><g
     id="g3170" /><g
     id="g3172" /><g
     id="g3174" /><g
     id="g3176" /><g
     id="g3178" /><g
     id="g3180" /><g
     id="g3182" /><g
     id="g3184" /><rect
     style="color:#000000;fill:#ffffff;fill-opacity:1;fill-rule:nonzero;stroke:#ffffff;stroke-width:0.65477598;stroke-linecap:butt;stroke-linejoin:miter;stroke-miterlimit:4;stroke-opacity:1;stroke-dasharray:none;stroke-dashoffset:0;marker:none;visibility:visible;display:inline;overflow:visible;enable-background:accumulate"
     id="rect3065"
     width="122.05408"
     height="161.46124"
     x="55.287689"
     y="72.131081" /><g
     id="g3150"
     style="fill:#e23229;fill-opacity:1"><g
       id="g3152"
       style="fill:#e23229;fill-opacity:1"><path
         d="M150.005,0C67.164,0,0.001,67.159,0.001,150c0,82.838,67.162,150.003,150.003,150.003S300.002,232.838,300.002,150    C300.002,67.159,232.844,0,150.005,0z M197.245,100.506l27.358-15.793c3.081-1.779,7.016-0.724,8.795,2.355    c1.777,3.081,0.724,7.018-2.355,8.795l-27.358,15.795c-3.079,1.779-7.016,0.724-8.795-2.355    C193.114,106.222,194.167,102.288,197.245,100.506z M165.865,224.624c-1.403,0.685-2.918,1.022-4.425,1.022    c-2.218,0-4.42-0.731-6.235-2.153L122.04,197.51c-1.535,0.379-3.136,0.607-4.796,0.607H84.01    c-10.898,0-19.735-8.836-19.735-19.732v-57.56c0-10.896,8.837-19.735,19.735-19.735h33.235c1.932,0,3.792,0.29,5.561,0.809    l32.397-25.389c3.042-2.384,7.187-2.824,10.66-1.131c3.475,1.691,5.683,5.218,5.683,9.088v131.069h0.002    C171.547,219.406,169.337,222.933,165.865,224.624z M234.237,213.383c-1.779,3.081-5.714,4.134-8.795,2.355l-27.358-15.793    c-3.079-1.782-4.132-5.716-2.355-8.798c1.779-3.081,5.716-4.134,8.795-2.355l27.358,15.795    C234.961,206.362,236.011,210.299,234.237,213.383z M231.133,156.795H199.55c-3.556,0-6.437-2.879-6.437-6.437    c0-3.556,2.882-6.437,6.437-6.437h31.585c3.556,0,6.437,2.882,6.437,6.437C237.573,153.916,234.688,156.795,231.133,156.795z"
         id="path3154"
         style="fill:#e23229;fill-opacity:1" /></g></g><rect
     style="color:#000000;fill:#e23229;fill-opacity:1;fill-rule:nonzero;stroke:#ffffff;stroke-width:0;stroke-linecap:butt;stroke-linejoin:miter;stroke-miterlimit:4;stroke-opacity:1;stroke-dasharray:none;stroke-dashoffset:0;marker:none;visibility:visible;display:inline;overflow:visible;enable-background:accumulate"
     id="rect3000"
     width="59.746361"
     height="156.99309"
     x="190.67987"
     y="68.644753" /><g
     transform="matrix(1.2658541,0,0,1.2658541,195.27872,119.63936)"
     id="g3"><path
       style="fill:#ffffff"
       inkscape:connector-curvature="0"
       d="M 28.228,23.986 47.092,5.122 c 1.172,-1.171 1.172,-3.071 0,-4.242 -1.172,-1.172 -3.07,-1.172 -4.242,0 L 23.986,19.744 5.121,0.88 c -1.172,-1.172 -3.07,-1.172 -4.242,0 -1.172,1.171 -1.172,3.071 0,4.242 L 19.744,23.986 0.879,42.85 c -1.172,1.171 -1.172,3.071 0,4.242 0.586,0.585 1.354,0.878 2.121,0.878 0.767,0 1.535,-0.293 2.121,-0.879 L 23.986,28.227 42.85,47.091 c 0.586,0.586 1.354,0.879 2.121,0.879 0.767,0 1.535,-0.293 2.121,-0.879 1.172,-1.171 1.172,-3.071 0,-4.242 L 28.228,23.986 z"
       id="path5" /></g></svg>