<?xml version="1.0" encoding="UTF-8" standalone="no"?>
<!-- Generator: Adobe Illustrator 19.0.0, SVG Export Plug-In . SVG Version: 6.00 Build 0)  -->

<svg
   xmlns:dc="http://purl.org/dc/elements/1.1/"
   xmlns:cc="http://creativecommons.org/ns#"
   xmlns:rdf="http://www.w3.org/1999/02/22-rdf-syntax-ns#"
   xmlns:svg="http://www.w3.org/2000/svg"
   xmlns="http://www.w3.org/2000/svg"
   xmlns:sodipodi="http://sodipodi.sourceforge.net/DTD/sodipodi-0.dtd"
   xmlns:inkscape="http://www.inkscape.org/namespaces/inkscape"
   version="1.1"
   id="Layer_1"
   x="0px"
   y="0px"
   viewBox="0 0 300.003 300.003"
   style="enable-background:new 0 0 300.003 300.003;"
   xml:space="preserve"
   inkscape:version="0.48.4 r9939"
   width="100%"
   height="100%"
   sodipodi:docname="pause.svg"><metadata
     id="metadata3061"><rdf:RDF><cc:Work
         rdf:about=""><dc:format>image/svg+xml</dc:format><dc:type
           rdf:resource="http://purl.org/dc/dcmitype/StillImage" /></cc:Work></rdf:RDF></metadata><defs
     id="defs3059" /><sodipodi:namedview
     pagecolor="#ffffff"
     bordercolor="#666666"
     borderopacity="1"
     objecttolerance="10"
     gridtolerance="10"
     guidetolerance="10"
     inkscape:pageopacity="0"
     inkscape:pageshadow="2"
     inkscape:window-width="1301"
     inkscape:window-height="744"
     id="namedview3057"
     showgrid="false"
     inkscape:zoom="1.1125035"
     inkscape:cx="147.0229"
     inkscape:cy="244.62325"
     inkscape:window-x="65"
     inkscape:window-y="24"
     inkscape:window-maximized="1"
     inkscape:current-layer="Layer_1" /><g
     id="g3027" /><g
     id="g3029" /><g
     id="g3031" /><g
     id="g3033" /><g
     id="g3035" /><g
     id="g3037" /><g
     id="g3039" /><g
     id="g3041" /><g
     id="g3043" /><g
     id="g3045" /><g
     id="g3047" /><g
     id="g3049" /><g
     id="g3051" /><g
     id="g3053" /><g
     id="g3055" /><rect
     style="color:#000000;fill:#ffffff;fill-opacity:1;fill-rule:nonzero;stroke:#ffffff;stroke-width:0.67372769;stroke-linecap:butt;stroke-linejoin:miter;stroke-miterlimit:4;stroke-opacity:1;stroke-dasharray:none;stroke-dashoffset:0;marker:none;visibility:visible;display:inline;overflow:visible;enable-background:accumulate"
     id="rect3065"
     width="151.27271"
     height="137.92511"
     x="74.475533"
     y="78.231949" /><g
     id="g3021"
     style="fill:#e23229;fill-opacity:1"><g
       id="g3023"
       style="fill:#e23229;fill-opacity:1"><path
         d="M150.001,0c-82.838,0-150,67.159-150,150c0,82.838,67.162,150.003,150,150.003c82.843,0,150-67.165,150-150.003    C300.001,67.159,232.846,0,150.001,0z M134.41,194.538c0,9.498-7.7,17.198-17.198,17.198s-17.198-7.7-17.198-17.198V105.46    c0-9.498,7.7-17.198,17.198-17.198s17.198,7.7,17.198,17.198V194.538z M198.955,194.538c0,9.498-7.701,17.198-17.198,17.198    c-9.498,0-17.198-7.7-17.198-17.198V105.46c0-9.498,7.7-17.198,17.198-17.198s17.198,7.7,17.198,17.198V194.538z"
         id="path3025"
         style="fill:#e23229;fill-opacity:1" /></g></g></svg>