<?xml version="1.0" encoding="UTF-8" standalone="no"?>
<!-- Generator: Adobe Illustrator 19.0.0, SVG Export Plug-In . SVG Version: 6.00 Build 0)  -->

<svg
   xmlns:dc="http://purl.org/dc/elements/1.1/"
   xmlns:cc="http://creativecommons.org/ns#"
   xmlns:rdf="http://www.w3.org/1999/02/22-rdf-syntax-ns#"
   xmlns:svg="http://www.w3.org/2000/svg"
   xmlns="http://www.w3.org/2000/svg"
   xmlns:sodipodi="http://sodipodi.sourceforge.net/DTD/sodipodi-0.dtd"
   xmlns:inkscape="http://www.inkscape.org/namespaces/inkscape"
   version="1.1"
   id="Layer_1"
   x="0px"
   y="0px"
   viewBox="0 0 300.003 300.003"
   style="enable-background:new 0 0 300.003 300.003;"
   xml:space="preserve"
   inkscape:version="0.48.4 r9939"
   width="100%"
   height="100%"
   sodipodi:docname="list.svg"><metadata
     id="metadata3061"><rdf:RDF><cc:Work
         rdf:about=""><dc:format>image/svg+xml</dc:format><dc:type
           rdf:resource="http://purl.org/dc/dcmitype/StillImage" /></cc:Work></rdf:RDF></metadata><defs
     id="defs3059" /><sodipodi:namedview
     pagecolor="#ffffff"
     bordercolor="#666666"
     borderopacity="1"
     objecttolerance="10"
     gridtolerance="10"
     guidetolerance="10"
     inkscape:pageopacity="0"
     inkscape:pageshadow="2"
     inkscape:window-width="753"
     inkscape:window-height="480"
     id="namedview3057"
     showgrid="false"
     inkscape:zoom="0.7866588"
     inkscape:cx="-73.729551"
     inkscape:cy="150.0015"
     inkscape:window-x="65"
     inkscape:window-y="24"
     inkscape:window-maximized="0"
     inkscape:current-layer="Layer_1" /><rect
     style="color:#000000;fill:#ffffff;fill-opacity:1;fill-rule:nonzero;stroke:#ffffff;stroke-width:0.67372769;stroke-linecap:butt;stroke-linejoin:miter;stroke-miterlimit:4;stroke-opacity:1;stroke-dasharray:none;stroke-dashoffset:0;marker:none;visibility:visible;display:inline;overflow:visible;enable-background:accumulate"
     id="rect5535"
     width="199.57826"
     height="157.62869"
     x="50.847965"
     y="75.000748" /><g
     id="g3021"
     style="fill:#e23229;fill-opacity:1"><g
       id="g3023"
       style="fill:#e23229;fill-opacity:1"><path
         d="M150.001,0c-82.838,0-150,67.159-150,150c0,82.838,67.162,150.003,150,150.003c82.843,0,150-67.165,150-150.003    C300.001,67.159,232.843,0,150.001,0z M78.538,215.222c-6.832,0-12.372-5.54-12.372-12.369c0-6.837,5.54-12.374,12.372-12.374    c6.832,0,12.372,5.537,12.372,12.374C90.91,209.685,85.371,215.222,78.538,215.222z M78.538,166.708    c-6.832,0-12.372-5.54-12.372-12.372c0-6.834,5.54-12.372,12.372-12.372c6.832,0,12.372,5.537,12.372,12.372    S85.371,166.708,78.538,166.708z M78.538,118.303c-6.832,0-12.372-5.54-12.372-12.372c0-6.834,5.54-12.372,12.372-12.372    c6.832,0,12.372,5.537,12.372,12.372C90.91,112.766,85.371,118.303,78.538,118.303z M215.423,215.043H117.95    c-6.73,0-12.187-5.457-12.187-12.187c0-6.733,5.457-12.19,12.187-12.19h97.474c6.73,0,12.187,5.457,12.187,12.19    C227.609,209.586,222.15,215.043,215.423,215.043z M215.423,166.527H117.95c-6.73,0-12.187-5.457-12.187-12.187    c0-6.733,5.457-12.19,12.187-12.19h97.474c6.73,0,12.187,5.457,12.187,12.19C227.609,161.07,222.15,166.527,215.423,166.527z     M215.423,118.01H117.95c-6.73,0-12.187-5.457-12.187-12.19c0-6.733,5.457-12.187,12.187-12.187h97.474    c6.73,0,12.187,5.457,12.187,12.187C227.609,112.551,222.15,118.01,215.423,118.01z"
         id="path3025"
         style="fill:#e23229;fill-opacity:1" /></g></g><g
     id="g3027" /><g
     id="g3029" /><g
     id="g3031" /><g
     id="g3033" /><g
     id="g3035" /><g
     id="g3037" /><g
     id="g3039" /><g
     id="g3041" /><g
     id="g3043" /><g
     id="g3045" /><g
     id="g3047" /><g
     id="g3049" /><g
     id="g3051" /><g
     id="g3053" /><g
     id="g3055" /></svg>