<?xml version="1.0" encoding="UTF-8" standalone="no"?>
<!-- Generator: Adobe Illustrator 19.0.0, SVG Export Plug-In . SVG Version: 6.00 Build 0)  -->

<svg
   xmlns:dc="http://purl.org/dc/elements/1.1/"
   xmlns:cc="http://creativecommons.org/ns#"
   xmlns:rdf="http://www.w3.org/1999/02/22-rdf-syntax-ns#"
   xmlns:svg="http://www.w3.org/2000/svg"
   xmlns="http://www.w3.org/2000/svg"
   xmlns:sodipodi="http://sodipodi.sourceforge.net/DTD/sodipodi-0.dtd"
   xmlns:inkscape="http://www.inkscape.org/namespaces/inkscape"
   version="1.1"
   id="Layer_1"
   x="0px"
   y="0px"
   viewBox="0 0 300.003 300.003"
   style="enable-background:new 0 0 300.003 300.003;"
   xml:space="preserve"
   inkscape:version="0.48.4 r9939"
   width="100%"
   height="100%"
   sodipodi:docname="music-player.svg"><metadata
     id="metadata3147"><rdf:RDF><cc:Work
         rdf:about=""><dc:format>image/svg+xml</dc:format><dc:type
           rdf:resource="http://purl.org/dc/dcmitype/StillImage" /></cc:Work></rdf:RDF></metadata><defs
     id="defs3145" /><sodipodi:namedview
     pagecolor="#ffffff"
     bordercolor="#666666"
     borderopacity="1"
     objecttolerance="10"
     gridtolerance="10"
     guidetolerance="10"
     inkscape:pageopacity="0"
     inkscape:pageshadow="2"
     inkscape:window-width="753"
     inkscape:window-height="480"
     id="namedview3143"
     showgrid="false"
     inkscape:zoom="0.7866588"
     inkscape:cx="-73.729551"
     inkscape:cy="150.0015"
     inkscape:window-x="65"
     inkscape:window-y="24"
     inkscape:window-maximized="0"
     inkscape:current-layer="Layer_1"
     showguides="true"
     inkscape:guide-bbox="true" /><rect
     style="color:#000000;fill:#ffffff;fill-opacity:1;fill-rule:nonzero;stroke:#ffffff;stroke-width:0.67372769;stroke-linecap:butt;stroke-linejoin:miter;stroke-miterlimit:4;stroke-opacity:1;stroke-dasharray:none;stroke-dashoffset:0;marker:none;visibility:visible;display:inline;overflow:visible;enable-background:accumulate"
     id="rect5023"
     width="188.13748"
     height="176.69669"
     x="50.847969"
     y="61.017563" /><g
     id="g3107"
     style="fill:#e23229;fill-opacity:1"><g
       id="g3109"
       style="fill:#e23229;fill-opacity:1"><path
         d="M150.005,0C67.164,0,0.001,67.159,0.001,150c0,82.838,67.162,150.003,150.003,150.003S300.002,232.838,300.002,150    C300.002,67.159,232.844,0,150.005,0z M214.127,185.87c-3.488,13.015-16.864,23.566-29.881,23.566    c-13.017,0-20.739-10.551-17.25-23.566c3.486-13.017,16.866-23.568,29.881-23.568c0.327,0,0.635,0.039,0.96,0.049l0.41-46.639    c0-2.052-2.002-4.43-3.33-5.239c-1.235-0.75-3.73-1.276-5.727-0.76l-76.058,19.872c-2.915,0.763-4.949,3.395-4.949,6.411v5.859    l-0.029,0.008v55.584c1.273,3.608,1.458,7.848,0.233,12.411c-3.488,13.017-16.866,23.566-29.881,23.566    c-13.02,0-20.739-10.548-17.253-23.566c3.488-13.02,16.869-23.568,29.881-23.568c0.171,0,0.335,0.023,0.501,0.029l-0.973-79.313    c0-4.995,3.359-9.36,8.185-10.642l102.648-27.241c3.312-0.877,6.832-0.166,9.537,1.914c2.71,2.088,4.298,5.309,4.298,8.728    l-0.986,95.14C215.198,178.177,215.19,181.909,214.127,185.87z"
         id="path3111"
         style="fill:#e23229;fill-opacity:1" /></g></g><g
     id="g3113" /><g
     id="g3115" /><g
     id="g3117" /><g
     id="g3119" /><g
     id="g3121" /><g
     id="g3123" /><g
     id="g3125" /><g
     id="g3127" /><g
     id="g3129" /><g
     id="g3131" /><g
     id="g3133" /><g
     id="g3135" /><g
     id="g3137" /><g
     id="g3139" /><g
     id="g3141" /></svg>