<?xml version="1.0" encoding="iso-8859-1"?>
<!-- Generator: Adobe Illustrator 19.0.0, SVG Export Plug-In . SVG Version: 6.00 Build 0)  -->
<svg version="1.1" id="Layer_1" xmlns="http://www.w3.org/2000/svg" xmlns:xlink="http://www.w3.org/1999/xlink" x="0px" y="0px"
	 viewBox="0 0 512 512" style="enable-background:new 0 0 512 512;" xml:space="preserve">
<path style="fill:#F28544;" d="M295.055,112.98c15.519,71.051-7.265,145.966-61.29,196.346
	c-54.03,50.385-130.369,67.857-200.142,47.449c7.985,16.146,18.305,31.034,30.821,44.456
	c33.975,36.435,80.103,57.459,129.893,59.198c49.727,1.673,97.275-16.022,133.709-49.997c36.44-33.975,57.464-80.108,59.198-129.898
	c1.74-49.784-16.011-97.269-49.991-133.704C324.742,133.409,310.605,122.079,295.055,112.98z"/>
<g>
	<path style="fill:#314E55;" d="M282.518,82.982c-3.842-1.641-8.316-0.87-11.397,1.994c-3.065,2.864-4.158,7.265-2.786,11.232
		c24.167,69.731,4.919,147.297-49.039,197.604c-53.953,50.318-132.689,64.113-200.545,35.135c-3.858-1.636-8.327-0.865-11.397,1.999
		c-3.065,2.864-4.158,7.265-2.786,11.232c9.502,27.409,24.426,52.146,44.363,73.522c37.838,40.577,89.217,63.988,144.667,65.925
		c2.486,0.088,4.956,0.129,7.431,0.129c52.725,0,102.727-19.662,141.487-55.807c40.577-37.843,63.993-89.217,65.93-144.672
		c1.937-55.449-17.839-108.335-55.677-148.913C332.836,110.992,309.202,94.375,282.518,82.982z M328.046,410.433
		c-36.435,33.975-83.982,51.669-133.709,49.997c-49.789-1.74-95.918-22.764-129.893-59.198
		c-12.516-13.422-22.836-28.31-30.821-44.456c69.772,20.408,146.111,2.936,200.142-47.449c54.025-50.38,76.81-125.294,61.29-196.346
		c15.55,9.098,29.687,20.428,42.198,33.851c33.98,36.435,51.731,83.92,49.991,133.704
		C385.509,330.324,364.485,376.458,328.046,410.433z"/>
	<path style="fill:#314E55;" d="M140.974,93.323c2.071,2.071,4.785,3.107,7.498,3.107c2.713,0,5.427-1.036,7.498-3.107
		l15.189-15.188l15.187,15.188c2.071,2.071,4.785,3.107,7.498,3.107s5.427-1.036,7.498-3.107c4.143-4.143,4.143-10.854,0-14.996
		l-15.186-15.185l14.787-14.787c4.143-4.143,4.143-10.854,0-14.996c-4.143-4.142-10.854-4.143-14.996,0l-14.787,14.786
		l-14.791-14.792c-4.143-4.143-10.854-4.143-14.996,0s-4.143,10.854,0,14.996l14.79,14.789l-15.189,15.188
		C136.832,82.47,136.832,89.181,140.974,93.323z"/>
	<path style="fill:#314E55;" d="M508.893,194.984l-15.188-15.188l14.789-14.789c4.143-4.143,4.143-10.854,0-14.996
		c-4.143-4.142-10.854-4.143-14.996,0L478.709,164.8l-14.789-14.789c-4.143-4.143-10.854-4.143-14.996,0
		c-4.142,4.143-4.143,10.854,0,14.996l14.789,14.789l-15.188,15.188c-4.143,4.143-4.143,10.854,0,14.996
		c2.071,2.071,4.785,3.107,7.498,3.107s5.427-1.036,7.498-3.107l15.188-15.188l15.188,15.188c2.071,2.071,4.785,3.107,7.498,3.107
		s5.427-1.036,7.498-3.107C513.036,205.838,513.036,199.127,508.893,194.984z"/>
	<path style="fill:#314E55;" d="M18.103,284.217l15.188-15.188l15.188,15.188c2.071,2.071,4.785,3.107,7.498,3.107
		s5.427-1.036,7.498-3.107c4.143-4.143,4.143-10.854,0-14.996l-15.188-15.188l14.789-14.789c4.143-4.143,4.143-10.854,0-14.996
		c-4.143-4.142-10.854-4.143-14.996,0l-14.789,14.789l-14.789-14.789c-4.143-4.143-10.854-4.143-14.996,0s-4.143,10.854,0,14.996
		l14.789,14.789L3.107,269.22c-4.143,4.143-4.143,10.854,0,14.996c2.071,2.072,4.785,3.107,7.498,3.107
		S16.032,286.288,18.103,284.217z"/>
</g>
<g>
</g>
<g>
</g>
<g>
</g>
<g>
</g>
<g>
</g>
<g>
</g>
<g>
</g>
<g>
</g>
<g>
</g>
<g>
</g>
<g>
</g>
<g>
</g>
<g>
</g>
<g>
</g>
<g>
</g>
</svg>
