<?xml version="1.0" encoding="iso-8859-1"?>
<!-- Generator: Adobe Illustrator 19.0.0, SVG Export Plug-In . SVG Version: 6.00 Build 0)  -->
<svg version="1.1" id="Layer_1" xmlns="http://www.w3.org/2000/svg" xmlns:xlink="http://www.w3.org/1999/xlink" x="0px" y="0px"
	 viewBox="0 0 512 512" style="enable-background:new 0 0 512 512;" xml:space="preserve">
<polygon style="fill:#E4AD40;" points="337.695,194.982 248.296,194.982 263.527,278.763 322.464,278.763 "/>
<polygon style="fill:#FFFFFF;" points="314.786,129.818 271.205,129.818 251.259,176.364 334.732,176.364 "/>
<polygon style="fill:#E65F58;" points="319.077,297.382 266.914,297.382 282.146,381.164 303.845,381.164 "/>
<path style="fill:#314E55;" d="M302.545,493.382v-93.6h9.068c4.5,0,8.354-3.218,9.159-7.646l18.618-102.4l18.618-102.4
	c0.016-0.087-0.023-0.17-0.01-0.257c0.179-1.16,0.131-2.331-0.136-3.486c-0.049-0.214-0.115-0.408-0.179-0.619
	c-0.098-0.321-0.144-0.652-0.279-0.965l-27.927-65.164c-1.464-3.427-4.832-5.645-8.555-5.645h-18.377V21.208
	c5.538,3.231,9.309,9.17,9.309,16.028v9.309h18.618v-9.309C330.473,16.7,313.768,0,293.236,0S256,16.7,256,37.236v9.309h18.618
	v-9.309c0-6.858,3.771-12.798,9.309-16.028V111.2h-18.859c-3.723,0-7.091,2.218-8.555,5.646l-27.927,65.164
	c-0.135,0.313-0.181,0.644-0.279,0.965c-0.064,0.21-0.13,0.404-0.179,0.619c-0.268,1.156-0.315,2.326-0.136,3.486
	c0.013,0.087-0.026,0.17-0.01,0.257l18.618,102.4l18.618,102.4c0.805,4.427,4.659,7.646,9.159,7.646h9.55v93.6h-204.8V512h353.745
	v-18.618H302.545z M248.296,194.982h89.4l-15.232,83.782h-58.937L248.296,194.982z M271.205,129.818h43.582l19.945,46.545h-83.473
	L271.205,129.818z M266.914,297.382h52.164l-15.232,83.782h-21.7L266.914,297.382z"/>
<g>
</g>
<g>
</g>
<g>
</g>
<g>
</g>
<g>
</g>
<g>
</g>
<g>
</g>
<g>
</g>
<g>
</g>
<g>
</g>
<g>
</g>
<g>
</g>
<g>
</g>
<g>
</g>
<g>
</g>
</svg>
