<?xml version="1.0" encoding="iso-8859-1"?>
<!-- Generator: Adobe Illustrator 19.0.0, SVG Export Plug-In . SVG Version: 6.00 Build 0)  -->
<svg version="1.1" id="Layer_1" xmlns="http://www.w3.org/2000/svg" xmlns:xlink="http://www.w3.org/1999/xlink" x="0px" y="0px"
	 viewBox="0 0 512 512" style="enable-background:new 0 0 512 512;" xml:space="preserve">
<polygon style="fill:#E4AD40;" points="251.259,96.695 165.926,112.213 165.926,172.232 251.259,187.75 "/>
<polygon style="fill:#E65F58;" points="146.963,115.657 61.63,131.176 61.63,153.269 146.963,168.787 "/>
<polygon style="fill:#FFFFFF;" points="270.222,99.713 270.222,184.732 317.63,164.417 317.63,120.028 "/>
<path style="fill:#314E55;" d="M336.593,493.037v-322.37v-56.889V21.601c5.641,3.291,9.481,9.34,9.481,16.325v9.481h18.963v-9.481
	C365.037,17.009,348.023,0,327.111,0s-37.926,17.009-37.926,37.926v9.481h18.963v-9.481c0-6.985,3.841-13.035,9.481-16.325V99.4
	L264.477,76.62c-0.312-0.135-0.645-0.181-0.966-0.279c-0.238-0.075-0.454-0.147-0.696-0.202c-1.162-0.262-2.34-0.301-3.507-0.12
	c-0.087,0.014-0.173-0.027-0.26-0.009L154.75,94.972L50.454,113.935c-4.509,0.815-7.787,4.741-7.787,9.324v37.926
	c0,4.583,3.278,8.509,7.787,9.324l104.296,18.963l104.296,18.963c0.565,0.111,1.129,0.157,1.694,0.157
	c1.205,0,2.375-0.274,3.487-0.717c0.081-0.032,0.169-0.017,0.249-0.051l53.153-22.78v307.992H109.037V512h360.296v-18.963H336.593z
	 M61.63,131.176l85.333-15.519v53.13L61.63,153.269V131.176z M165.926,112.213l85.333-15.519v91.056l-85.333-15.519V112.213z
	 M270.222,184.732V99.713l47.407,20.315v44.389L270.222,184.732z"/>
<g>
</g>
<g>
</g>
<g>
</g>
<g>
</g>
<g>
</g>
<g>
</g>
<g>
</g>
<g>
</g>
<g>
</g>
<g>
</g>
<g>
</g>
<g>
</g>
<g>
</g>
<g>
</g>
<g>
</g>
</svg>
