<?xml version="1.0" encoding="UTF-8" standalone="no"?>
<!-- Generator: Adobe Illustrator 19.0.0, SVG Export Plug-In . SVG Version: 6.00 Build 0)  -->

<svg
   xmlns:dc="http://purl.org/dc/elements/1.1/"
   xmlns:cc="http://creativecommons.org/ns#"
   xmlns:rdf="http://www.w3.org/1999/02/22-rdf-syntax-ns#"
   xmlns:svg="http://www.w3.org/2000/svg"
   xmlns="http://www.w3.org/2000/svg"
   xmlns:sodipodi="http://sodipodi.sourceforge.net/DTD/sodipodi-0.dtd"
   xmlns:inkscape="http://www.inkscape.org/namespaces/inkscape"
   version="1.1"
   id="Layer_1"
   x="0px"
   y="0px"
   viewBox="0 0 300 300"
   style="enable-background:new 0 0 300 300;"
   xml:space="preserve"
   inkscape:version="0.48.4 r9939"
   width="100%"
   height="100%"
   sodipodi:docname="play-button23.svg"><metadata
     id="metadata43"><rdf:RDF><cc:Work
         rdf:about=""><dc:format>image/svg+xml</dc:format><dc:type
           rdf:resource="http://purl.org/dc/dcmitype/StillImage" /><dc:title /></cc:Work></rdf:RDF></metadata><defs
     id="defs41" /><sodipodi:namedview
     pagecolor="#040000"
     bordercolor="#666666"
     borderopacity="1"
     objecttolerance="10"
     gridtolerance="10"
     guidetolerance="10"
     inkscape:pageopacity="1"
     inkscape:pageshadow="2"
     inkscape:window-width="1301"
     inkscape:window-height="744"
     id="namedview39"
     showgrid="false"
     inkscape:zoom="1.5909902"
     inkscape:cx="231.5649"
     inkscape:cy="122.33681"
     inkscape:window-x="65"
     inkscape:window-y="24"
     inkscape:window-maximized="1"
     inkscape:current-layer="Layer_1" /><g
     id="g9" /><g
     id="g11" /><g
     id="g13" /><g
     id="g15" /><g
     id="g17" /><g
     id="g19" /><g
     id="g21" /><g
     id="g23" /><g
     id="g25" /><g
     id="g27" /><g
     id="g29" /><g
     id="g31" /><g
     id="g33" /><g
     id="g35" /><g
     id="g37" /><path
     style="color:#000000;fill:#ffffff;fill-opacity:1;fill-rule:nonzero;stroke:#ffffff;stroke-width:0.52139711;stroke-linecap:butt;stroke-linejoin:miter;stroke-miterlimit:4;stroke-opacity:1;stroke-dasharray:none;stroke-dashoffset:0;marker:none;visibility:visible;display:inline;overflow:visible;enable-background:accumulate"
     d="m 105.24857,213.66106 c -4.05122,-1.09794 -6.102466,-2.92091 -7.322338,-6.50744 -0.596123,-1.75261 -0.820799,-21.37054 -0.663693,-57.94839 0.223278,-51.982006 0.332518,-55.436627 1.821378,-57.597038 1.957403,-2.84024 8.046613,-5.19673 11.645473,-4.506713 3.50689,0.672387 122.8269,55.185941 125.93521,57.535801 2.32847,1.76035 2.60933,2.41425 2.60933,6.07531 0,3.46257 -0.33926,4.36857 -2.17445,5.80712 -2.74969,2.15542 -121.89798,56.6302 -125.6625,57.4531 -1.90308,0.41599 -3.86854,0.31699 -6.18841,-0.31175 l 0,0 z"
     id="path3017"
     inkscape:connector-curvature="0" /><g
     id="g3"
     style="fill:#e23229;fill-opacity:1"><g
       id="g5"
       style="fill:#e23229;fill-opacity:1"><path
         d="M150,0C67.157,0,0,67.162,0,150c0,82.841,67.157,150,150,150s150-67.159,150-150C300,67.162,232.843,0,150,0z     M205.846,158.266l-86.557,49.971c-1.32,0.765-2.799,1.144-4.272,1.144c-1.473,0-2.949-0.379-4.274-1.144    c-2.64-1.525-4.269-4.347-4.269-7.402V100.89c0-3.053,1.631-5.88,4.269-7.402c2.648-1.528,5.906-1.528,8.551,0l86.557,49.974    c2.645,1.53,4.274,4.352,4.269,7.402C210.12,153.916,208.494,156.741,205.846,158.266z"
         id="path7"
         style="fill:#e23229;fill-opacity:1" /></g></g></svg>