<?xml version="1.0" encoding="iso-8859-1"?>
<!-- Generator: Adobe Illustrator 18.0.0, SVG Export Plug-In . SVG Version: 6.00 Build 0)  -->
<!DOCTYPE svg PUBLIC "-//W3C//DTD SVG 1.1//EN" "http://www.w3.org/Graphics/SVG/1.1/DTD/svg11.dtd">
<svg xmlns="http://www.w3.org/2000/svg" xmlns:xlink="http://www.w3.org/1999/xlink" version="1.1" id="Capa_1" x="0px" y="0px" viewBox="0 0 293.772 293.772" style="enable-background:new 0 0 293.772 293.772;" xml:space="preserve" width="512px" height="512px">
<path d="M86.201,291.576c1.417,1.416,3.301,2.196,5.304,2.196c2.003,0,3.887-0.78,5.304-2.197l14.143-14.142  c2.924-2.924,2.924-7.683,0-10.607l-45.125-45.125h135.292c50.023,0,90.721-40.697,90.721-90.721V90.72  c0-50.023-40.697-90.72-90.721-90.72H23.576c-4.136,0-7.5,3.365-7.5,7.5v20c0,4.136,3.364,7.5,7.5,7.5h177.542  c30.725,0,55.721,24.996,55.721,55.72v40.261c0,30.725-24.996,55.721-55.721,55.721H65.826l45.125-45.125  c1.416-1.417,2.196-3.3,2.196-5.304c0-2.003-0.78-3.887-2.196-5.304l-14.143-14.143c-1.417-1.417-3.301-2.196-5.304-2.196  c-2.003,0-3.887,0.78-5.304,2.197L4.13,198.898c-1.416,1.417-2.196,3.3-2.196,5.304s0.78,3.887,2.196,5.304L86.201,291.576z" fill="#FFFFFF"/>
<g>
</g>
<g>
</g>
<g>
</g>
<g>
</g>
<g>
</g>
<g>
</g>
<g>
</g>
<g>
</g>
<g>
</g>
<g>
</g>
<g>
</g>
<g>
</g>
<g>
</g>
<g>
</g>
<g>
</g>
</svg>
