<?xml version="1.0" encoding="UTF-8" standalone="no"?>
<!-- Generator: Adobe Illustrator 18.0.0, SVG Export Plug-In . SVG Version: 6.00 Build 0)  -->

<svg
   xmlns:dc="http://purl.org/dc/elements/1.1/"
   xmlns:cc="http://creativecommons.org/ns#"
   xmlns:rdf="http://www.w3.org/1999/02/22-rdf-syntax-ns#"
   xmlns:svg="http://www.w3.org/2000/svg"
   xmlns="http://www.w3.org/2000/svg"
   xmlns:sodipodi="http://sodipodi.sourceforge.net/DTD/sodipodi-0.dtd"
   xmlns:inkscape="http://www.inkscape.org/namespaces/inkscape"
   version="1.1"
   id="Capa_1"
   x="0px"
   y="0px"
   viewBox="0 0 432.877 432.877"
   style="enable-background:new 0 0 432.877 432.877;"
   xml:space="preserve"
   width="512px"
   height="512px"
   inkscape:version="0.48.4 r9939"
   sodipodi:docname="loop one.svg"><metadata
     id="metadata43"><rdf:RDF><cc:Work
         rdf:about=""><dc:format>image/svg+xml</dc:format><dc:type
           rdf:resource="http://purl.org/dc/dcmitype/StillImage" /></cc:Work></rdf:RDF></metadata><defs
     id="defs41" /><sodipodi:namedview
     pagecolor="#000000"
     bordercolor="#666666"
     borderopacity="1"
     objecttolerance="10"
     gridtolerance="10"
     guidetolerance="10"
     inkscape:pageopacity="1"
     inkscape:pageshadow="2"
     inkscape:window-width="1301"
     inkscape:window-height="744"
     id="namedview39"
     showgrid="false"
     inkscape:zoom="0.4609375"
     inkscape:cx="-2.1694915"
     inkscape:cy="342.77966"
     inkscape:window-x="1985"
     inkscape:window-y="336"
     inkscape:window-maximized="1"
     inkscape:current-layer="Capa_1" /><g
     id="g3"
     transform="translate(4.9952589e-4,-5e-4)"><path
       d="m 430.681,147.832 -14.143,-14.143 c -1.407,-1.407 -3.314,-2.197 -5.304,-2.197 -1.989,0 -3.897,0.79 -5.304,2.197 l -20.125,20.126 v -32.333 c 0,-46.066 -37.478,-83.544 -83.545,-83.544 H 130.615 c -46.066,0 -83.544,37.478 -83.544,83.544 v 74.582 c 0,4.142 3.357,7.5 7.5,7.5 h 20 c 4.143,0 7.5,-3.358 7.5,-7.5 v -74.582 c 0,-26.767 21.776,-48.544 48.544,-48.544 h 171.646 c 26.767,0 48.545,21.777 48.545,48.544 v 32.333 l -20.125,-20.126 c -1.407,-1.407 -3.314,-2.197 -5.304,-2.197 -1.989,0 -3.897,0.79 -5.304,2.197 l -14.143,14.143 c -1.406,1.406 -2.196,3.314 -2.196,5.303 0,1.989 0.79,3.897 2.196,5.303 l 57.071,57.071 c 1.465,1.464 3.385,2.197 5.304,2.197 1.919,0 3.839,-0.732 5.304,-2.197 l 57.071,-57.071 c 1.406,-1.406 2.196,-3.314 2.196,-5.303 0.001,-1.99 -0.789,-3.897 -2.195,-5.303 z"
       id="path5"
       inkscape:connector-curvature="0"
       style="fill:#ffffff" /><path
       d="m 378.306,229.314 h -20 c -4.143,0 -7.5,3.358 -7.5,7.5 v 74.582 c 0,26.767 -21.777,48.544 -48.545,48.544 H 130.615 c -26.768,0 -48.544,-21.777 -48.544,-48.544 v -32.333 l 20.125,20.125 c 1.407,1.407 3.315,2.197 5.304,2.197 1.989,0 3.896,-0.79 5.304,-2.197 l 14.143,-14.143 c 1.406,-1.406 2.196,-3.314 2.196,-5.303 0,-1.989 -0.79,-3.897 -2.196,-5.303 L 69.876,217.368 c -2.93,-2.929 -7.678,-2.929 -10.607,0 L 2.196,274.439 C 0.79,275.845 0,277.753 0,279.742 c 0,1.989 0.79,3.897 2.196,5.303 l 14.143,14.143 c 1.407,1.407 3.314,2.197 5.304,2.197 1.99,0 3.897,-0.79 5.304,-2.197 l 20.125,-20.125 v 32.333 c 0,46.066 37.478,83.544 83.544,83.544 h 171.646 c 46.066,0 83.545,-37.478 83.545,-83.544 v -74.582 c -0.001,-4.143 -3.359,-7.5 -7.501,-7.5 z"
       id="path7"
       inkscape:connector-curvature="0"
       style="fill:#ffffff" /></g><g
     id="g9" /><g
     id="g11" /><g
     id="g13" /><g
     id="g15" /><g
     id="g17" /><g
     id="g19" /><g
     id="g21" /><g
     id="g23" /><g
     id="g25" /><g
     id="g27" /><g
     id="g29" /><g
     id="g31" /><g
     id="g33" /><g
     id="g35" /><g
     id="g37" /><text
     xml:space="preserve"
     style="font-size:33.81851578px;font-style:normal;font-variant:normal;font-weight:normal;font-stretch:normal;line-height:125%;letter-spacing:0px;word-spacing:0px;fill:#000000;fill-opacity:1;stroke:none;font-family:Droid Sans;-inkscape-font-specification:Droid Sans"
     x="179.73848"
     y="276.79333"
     id="text3020"
     sodipodi:linespacing="125%"><tspan
       sodipodi:role="line"
       id="tspan3022"
       x="179.73848"
       y="276.79333"
       style="font-size:169.09257507px;fill:#ffffff">1</tspan></text>
</svg>