<?xml version="1.0" encoding="UTF-8" standalone="no"?>
<!-- Generator: Adobe Illustrator 19.0.0, SVG Export Plug-In . SVG Version: 6.00 Build 0)  -->

<svg
   xmlns:dc="http://purl.org/dc/elements/1.1/"
   xmlns:cc="http://creativecommons.org/ns#"
   xmlns:rdf="http://www.w3.org/1999/02/22-rdf-syntax-ns#"
   xmlns:svg="http://www.w3.org/2000/svg"
   xmlns="http://www.w3.org/2000/svg"
   xmlns:sodipodi="http://sodipodi.sourceforge.net/DTD/sodipodi-0.dtd"
   xmlns:inkscape="http://www.inkscape.org/namespaces/inkscape"
   version="1.1"
   id="Layer_1"
   x="0px"
   y="0px"
   viewBox="0 0 300.003 300.003"
   style="enable-background:new 0 0 300.003 300.003;"
   xml:space="preserve"
   inkscape:version="0.48.4 r9939"
   width="100%"
   height="100%"
   sodipodi:docname="power.svg"><metadata
     id="metadata3233"><rdf:RDF><cc:Work
         rdf:about=""><dc:format>image/svg+xml</dc:format><dc:type
           rdf:resource="http://purl.org/dc/dcmitype/StillImage" /></cc:Work></rdf:RDF></metadata><defs
     id="defs3231" /><sodipodi:namedview
     pagecolor="#ffffff"
     bordercolor="#666666"
     borderopacity="1"
     objecttolerance="10"
     gridtolerance="10"
     guidetolerance="10"
     inkscape:pageopacity="0"
     inkscape:pageshadow="2"
     inkscape:window-width="1301"
     inkscape:window-height="744"
     id="namedview3229"
     showgrid="false"
     inkscape:zoom="0.7866588"
     inkscape:cx="-297.4606"
     inkscape:cy="150.0015"
     inkscape:window-x="65"
     inkscape:window-y="24"
     inkscape:window-maximized="1"
     inkscape:current-layer="Layer_1" /><g
     id="g3199" /><g
     id="g3201" /><g
     id="g3203" /><g
     id="g3205" /><g
     id="g3207" /><g
     id="g3209" /><g
     id="g3211" /><g
     id="g3213" /><g
     id="g3215" /><g
     id="g3217" /><g
     id="g3219" /><g
     id="g3221" /><g
     id="g3223" /><g
     id="g3225" /><g
     id="g3227" /><rect
     style="color:#000000;fill:#ffffff;fill-opacity:1;fill-rule:nonzero;stroke:#ffffff;stroke-width:0.67372768999999999;stroke-linecap:butt;stroke-linejoin:miter;stroke-miterlimit:4;stroke-opacity:1;stroke-dasharray:none;stroke-dashoffset:0;marker:none;visibility:visible;display:inline;overflow:visible;enable-background:accumulate"
     id="rect4003"
     width="169.06949"
     height="197.03587"
     x="64.831154"
     y="50.847965" /><g
     id="g3193"
     style="fill:#e23229;fill-opacity:1"><g
       id="g3195"
       style="fill:#e23229;fill-opacity:1"><path
         d="M150,0C67.159,0,0.001,67.159,0.001,150c0,82.838,67.157,150.003,149.997,150.003S300.002,232.838,300.002,150    C300.002,67.159,232.839,0,150,0z M135.099,70.993c0-8.23,6.671-14.903,14.903-14.903s14.903,6.673,14.903,14.903v44.437    c0,8.23-6.671,14.903-14.903,14.903s-14.903-6.673-14.903-14.903V70.993z M150.002,226.229c-41.962,0-76.1-34.137-76.1-76.097    c0-32.402,20.363-60.123,48.957-71.078v27.485c-14.55,9.091-24.282,25.21-24.282,43.596c0,28.354,23.07,51.421,51.424,51.421    s51.421-23.07,51.421-51.421c0-18.386-9.731-34.503-24.279-43.596V79.054c28.592,10.955,48.955,38.679,48.955,71.078    C226.099,192.092,191.961,226.229,150.002,226.229z"
         id="path3197"
         style="fill:#e23229;fill-opacity:1" /></g></g></svg>