<?xml version="1.0" encoding="UTF-8" standalone="no"?>
<!-- Generator: Adobe Illustrator 19.0.0, SVG Export Plug-In . SVG Version: 6.00 Build 0)  -->

<svg
   xmlns:dc="http://purl.org/dc/elements/1.1/"
   xmlns:cc="http://creativecommons.org/ns#"
   xmlns:rdf="http://www.w3.org/1999/02/22-rdf-syntax-ns#"
   xmlns:svg="http://www.w3.org/2000/svg"
   xmlns="http://www.w3.org/2000/svg"
   xmlns:sodipodi="http://sodipodi.sourceforge.net/DTD/sodipodi-0.dtd"
   xmlns:inkscape="http://www.inkscape.org/namespaces/inkscape"
   version="1.1"
   id="Layer_1"
   x="0px"
   y="0px"
   viewBox="0 0 300 300"
   style="enable-background:new 0 0 300 300;"
   xml:space="preserve"
   inkscape:version="0.48.4 r9939"
   width="100%"
   height="100%"
   sodipodi:docname="rewind.svg"><metadata
     id="metadata3104"><rdf:RDF><cc:Work
         rdf:about=""><dc:format>image/svg+xml</dc:format><dc:type
           rdf:resource="http://purl.org/dc/dcmitype/StillImage" /></cc:Work></rdf:RDF></metadata><defs
     id="defs3102" /><sodipodi:namedview
     pagecolor="#ffffff"
     bordercolor="#666666"
     borderopacity="1"
     objecttolerance="10"
     gridtolerance="10"
     guidetolerance="10"
     inkscape:pageopacity="0"
     inkscape:pageshadow="2"
     inkscape:window-width="1301"
     inkscape:window-height="744"
     id="namedview3100"
     showgrid="false"
     inkscape:zoom="1.1125147"
     inkscape:cx="166.38216"
     inkscape:cy="152.39457"
     inkscape:window-x="65"
     inkscape:window-y="24"
     inkscape:window-maximized="1"
     inkscape:current-layer="Layer_1" /><g
     id="g3070" /><g
     id="g3072" /><g
     id="g3074" /><g
     id="g3076" /><g
     id="g3078" /><g
     id="g3080" /><g
     id="g3082" /><g
     id="g3084" /><g
     id="g3086" /><g
     id="g3088" /><g
     id="g3090" /><g
     id="g3092" /><g
     id="g3094" /><g
     id="g3096" /><g
     id="g3098" /><rect
     style="color:#000000;fill:#ffffff;fill-opacity:1;fill-rule:nonzero;stroke:#ffffff;stroke-width:0.77556515;stroke-linecap:butt;stroke-linejoin:miter;stroke-miterlimit:4;stroke-opacity:1;stroke-dasharray:none;stroke-dashoffset:0;marker:none;visibility:visible;display:inline;overflow:visible;enable-background:accumulate"
     id="rect3065"
     width="200.60841"
     height="137.82327"
     x="47.559013"
     y="76.483658" /><g
     id="g3064"
     style="fill:#e23229;fill-opacity:1"><g
       id="g3066"
       style="fill:#e23229;fill-opacity:1"><path
         d="M150.003,0C67.162,0,0,67.159,0,150c0,82.838,67.162,150,150.003,150S300,232.838,300,150C300,67.157,232.843,0,150.003,0    z M228.439,198.529c-1.292,0.744-2.731,1.12-4.171,1.12s-2.882-0.376-4.173-1.12l-71.239-41.127v33.899    c0,2.983-1.59,5.74-4.173,7.228c-1.292,0.744-2.734,1.12-4.173,1.12c-1.439,0-2.882-0.376-4.171-1.12l-71.54-41.301    c-2.583-1.489-4.173-4.251-4.173-7.228c0-2.98,1.59-5.74,4.173-7.228l71.535-41.304c2.583-1.489,5.763-1.489,8.346,0    s4.173,4.251,4.173,7.228V142.6l71.237-41.132c2.586-1.489,5.763-1.489,8.346,0c2.583,1.489,4.173,4.251,4.173,7.228v82.605h0.003    C232.612,194.284,231.022,197.041,228.439,198.529z"
         id="path3068"
         style="fill:#e23229;fill-opacity:1" /></g></g></svg>